<?xml version="1.0" encoding="utf-8"?>
<!-- Generator: Adobe Illustrator 16.0.4, SVG Export Plug-In . SVG Version: 6.00 Build 0)  -->
<!DOCTYPE svg PUBLIC "-//W3C//DTD SVG 1.1//EN" "http://www.w3.org/Graphics/SVG/1.1/DTD/svg11.dtd">
<svg version="1.1" id="Layer_1" xmlns="http://www.w3.org/2000/svg" xmlns:xlink="http://www.w3.org/1999/xlink" x="0px" y="0px"
	 width="500.0px" height="500.0px" viewBox="0 0 500 500" enable-background="new 0 0 500 500"
	 xml:space="preserve">

<g transform="translate(250 250)">
	<!-- torso -->
	<g transform="rotate(35)">
		<g transform="scale(.5 1)">
			<polygon fill="#f6bff9" points="-50,-50 50,-50 -50,50 "/>
			<polygon fill="#f6bff9" points="-50,50 50,-50 50,50"/>
		</g>
	</g>

	<!-- head -->
	<g transform="translate(35 -90)">
		<g transform="rotate(-4)">
			<g transform="scale(.5 .5)">
				<polygon fill="#754c19" points="-50,-50 50,-50 -50,50 "/>
				<polygon fill="#f5cba7" points="-50,50 50,-50 50,50"/>
			</g>
		</g>
	</g>

	<!-- left leg -->
	<g transform="translate(-100 45)">
		<g transform="rotate(85)">
			<g transform="scale(.2 .8)">
				<polygon fill="#f6bff9" points="-50,-50 50,-50 -50,50 "/>
				<polygon fill="#f6bff9" points="-50,50 50,-50 50,50"/>
			</g>
		</g>
		<g transform="translate(-84 1)">
			<g transform="rotate(94)">
				<g transform="scale(.2 .6)">
					<polygon fill="#f5cba7" points="-50,-50 50,-50 -50,50 "/>
					<polygon fill="#f5cba7" points="-50,50 50,-50 50,50"/>
				</g>
			</g>
		</g>
	</g>

	<!-- right leg -->
	<g transform="translate(-20 105)">
		<g transform="scale(.2 .8)">
			<polygon fill="#f6bff9" points="-50,-50 50,-50 -50,50 "/>
			<polygon fill="#f6bff9" points="-50,50 50,-50 50,50"/>
		</g>
		<g transform="translate(0 80)">
			<g transform="scale(.2 .6)">
				<polygon fill="#f5cba7" points="-50,-50 50,-50 -50,50 "/>
				<polygon fill="#f5cba7" points="-50,50 50,-50 50,50"/>
			</g>
		</g>
	</g>

	<!-- left arm -->
	<g transform="translate(-55 -45)">
		<g transform="rotate(2)">
			<g transform="scale(.7 .2)">
				<polygon fill="#f5cba7" points="-50,-50 50,-50 -50,50 "/>
				<polygon fill="#f5cba7" points="-50,50 50,-50 50,50"/>
			</g>
		</g>
		<g transform="translate(-80 -5)">
			<g transform="rotate(4)">
				<g transform="scale(.6 .2)">
					<polygon fill="#f5cba7" points="-50,-50 50,-50 -50,50 "/>
					<polygon fill="#f5cba7" points="-50,50 50,-50 50,50"/>
				</g>
			</g>
		</g>
	</g>

	<!-- right arm -->
	<g transform="translate(95 -45)">
		<g transform="rotate(-35)">
			<g transform="scale(.7 .2)">
				<polygon fill="#f5cba7" points="-50,-50 50,-50 -50,50 "/>
				<polygon fill="#f5cba7" points="-50,50 50,-50 50,50"/>
			</g>
		</g>
		<g transform="translate(55 -60)">
			<g transform="rotate(-60)">
				<g transform="scale(.6 .2)">
					<polygon fill="#f5cba7" points="-50,-50 50,-50 -50,50 "/>
					<polygon fill="#f5cba7" points="-50,50 50,-50 50,50"/>
				</g>
			</g>
		</g>
	</g>

</g>


</svg>
